<?xml version="1.0" encoding="UTF-8"?>
<svg id="Layer_1" data-name="Layer 1" xmlns="http://www.w3.org/2000/svg" viewBox="0 0 204.48 154.57">
  <defs>
    <style>
      .cls-1 {
        fill: #7f42a1;
      }

      .cls-1, .cls-2, .cls-3 {
        stroke-width: 0px;
      }

      .cls-2 {
        fill: #faf3db;
      }

      .cls-3 {
        fill: #ffb511;
      }
    </style>
  </defs>
  <path class="cls-1" d="M203.23,0H1.26C.56,0,0,.56,0,1.26v152.06c0,.69.56,1.26,1.26,1.26h201.97c.69,0,1.26-.56,1.26-1.26V1.26C204.48.56,203.92,0,203.23,0ZM152.02,6.44h7.96l-23.98,33c-1.64-1.39-3.36-2.67-5.17-3.85l21.18-29.16ZM122.87,6.44h6.77l-7.94,24.44c-1.99-.78-4.03-1.44-6.13-1.97l7.3-22.48ZM98.97,6.44h6.55v21.1c-1.08-.09-2.17-.13-3.27-.15-1.1.02-2.19.06-3.27.15V6.44ZM81.61,6.44l7.3,22.48c-2.1.53-4.15,1.19-6.13,1.97l-7.94-24.44h6.77ZM52.46,6.44l21.18,29.16c-1.8,1.17-3.53,2.46-5.17,3.85L44.5,6.44h7.96ZM6.12,6.65l55.25,40.14c-1.33,1.68-2.56,3.45-3.67,5.29L6.12,14.61v-7.96ZM6.12,45.87l47.24,15.35c-.72,2.01-1.32,4.08-1.78,6.19L6.12,52.64v-6.77ZM197.91,148.13H6.57v-3.22c0-1.78,1.44-3.22,3.22-3.22h5.14c1.78,0,3.22-1.44,3.22-3.22s1.44-3.22,3.22-3.22h21.47c1.78,0,3.22-1.44,3.22-3.22s-1.44-3.22-3.22-3.22h-10.73c-1.78,0-3.22-1.44-3.22-3.22v-6.44c0-1.78,1.44-3.22,3.22-3.22h22.54c1.78,0,3.22-1.44,3.22-3.22s-1.44-3.22-3.22-3.22h-13.42c-1.78,0-3.22-1.44-3.22-3.22s1.44-3.22,3.22-3.22h24.15c1.78,0,3.22-1.44,3.22-3.22h0c0-1.78-1.44-3.22-3.22-3.22h-4.29c-1.78,0-3.22-1.44-3.22-3.22v-3.22h88.74v3.22c0,1.78-1.44,3.22-3.22,3.22h-4.29c-1.78,0-3.22,1.44-3.22,3.22h0c0,1.78,1.44,3.22,3.22,3.22h24.15c1.78,0,3.22,1.44,3.22,3.22s-1.44,3.22-3.22,3.22h-13.42c-1.78,0-3.22,1.44-3.22,3.22s1.44,3.22,3.22,3.22h22.54c1.78,0,3.22,1.44,3.22,3.22v6.44c0,1.78-1.44,3.22-3.22,3.22h-10.73c-1.78,0-3.22,1.44-3.22,3.22s1.44,3.22,3.22,3.22h21.47c1.78,0,3.22,1.44,3.22,3.22s1.44,3.22,3.22,3.22h5.14c1.78,0,3.22,1.44,3.22,3.22v3.22ZM197.91,83.73H6.57v-6.44h51.15c.57-24.1,20.28-43.47,44.52-43.47s43.95,19.37,44.52,43.47h51.15v6.44ZM198.36,52.64l-45.46,14.77c-.46-2.12-1.06-4.18-1.78-6.19l47.24-15.35v6.77ZM198.36,14.61l-51.58,37.48c-1.11-1.84-2.34-3.61-3.67-5.29L198.36,6.65v7.96Z"/>
  <path class="cls-2" d="M194.69,141.69h-5.14c-1.78,0-3.22-1.44-3.22-3.22s-1.44-3.22-3.22-3.22h-21.47c-1.78,0-3.22-1.44-3.22-3.22s1.44-3.22,3.22-3.22h10.73c1.78,0,3.22-1.44,3.22-3.22v-6.44c0-1.78-1.44-3.22-3.22-3.22h-22.54c-1.78,0-3.22-1.44-3.22-3.22s1.44-3.22,3.22-3.22h13.42c1.78,0,3.22-1.44,3.22-3.22s-1.44-3.22-3.22-3.22h-24.15c-1.78,0-3.22-1.44-3.22-3.22h0c0-1.78,1.44-3.22,3.22-3.22h4.29c1.78,0,3.22-1.44,3.22-3.22v-3.22H57.87v3.22c0,1.78,1.44,3.22,3.22,3.22h4.29c1.78,0,3.22,1.44,3.22,3.22h0c0,1.78-1.44,3.22-3.22,3.22h-24.15c-1.78,0-3.22,1.44-3.22,3.22s1.44,3.22,3.22,3.22h13.42c1.78,0,3.22,1.44,3.22,3.22s-1.44,3.22-3.22,3.22h-22.54c-1.78,0-3.22,1.44-3.22,3.22v6.44c0,1.78,1.44,3.22,3.22,3.22h10.73c1.78,0,3.22,1.44,3.22,3.22s-1.44,3.22-3.22,3.22h-21.47c-1.78,0-3.22,1.44-3.22,3.22s-1.44,3.22-3.22,3.22h-5.14c-1.78,0-3.22,1.44-3.22,3.22v3.22h191.33v-3.22c0-1.78-1.44-3.22-3.22-3.22Z"/>
  <g>
    <path class="cls-3" d="M159.98,6.44h-7.96l-21.18,29.16c1.8,1.17,3.53,2.46,5.17,3.85l23.98-33Z"/>
    <path class="cls-3" d="M146.78,52.09l51.58-37.48v-7.96l-55.25,40.14c1.33,1.68,2.56,3.45,3.67,5.29Z"/>
    <path class="cls-3" d="M152.9,67.41l45.46-14.77v-6.77l-47.24,15.35c.72,2.01,1.32,4.08,1.78,6.19Z"/>
    <path class="cls-3" d="M129.64,6.44h-6.77l-7.3,22.48c2.1.53,4.15,1.19,6.13,1.97l7.94-24.44Z"/>
    <path class="cls-3" d="M102.24,33.81c-24.24,0-43.95,19.37-44.52,43.47H6.57v6.44h191.33v-6.44h-51.15c-.57-24.1-20.28-43.47-44.52-43.47Z"/>
    <path class="cls-3" d="M53.36,61.22L6.12,45.87v6.77l45.46,14.77c.46-2.12,1.06-4.18,1.78-6.19Z"/>
    <path class="cls-3" d="M61.37,46.79L6.12,6.65v7.96l51.58,37.48c1.11-1.84,2.34-3.61,3.67-5.29Z"/>
    <path class="cls-3" d="M105.51,27.54V6.44h-6.55v21.1c1.08-.09,2.17-.13,3.27-.15,1.1.02,2.19.06,3.27.15Z"/>
    <path class="cls-3" d="M88.92,28.92l-7.3-22.48h-6.77l7.94,24.44c1.99-.78,4.03-1.44,6.13-1.97Z"/>
    <path class="cls-3" d="M73.65,35.6L52.46,6.44h-7.96l23.98,33c1.64-1.39,3.36-2.67,5.17-3.85Z"/>
  </g>
</svg>